<?xml version="1.0" encoding="UTF-8"?>
<svg width="371px" height="158px" viewBox="0 0 371 158" version="1.1" xmlns="http://www.w3.org/2000/svg" xmlns:xlink="http://www.w3.org/1999/xlink">
    <!-- Generator: Sketch 63.1 (92452) - https://sketch.com -->
    <title>Artboard</title>
    <desc>Created with Sketch.</desc>
    <g id="Artboard" stroke="none" stroke-width="1" fill="none" fill-rule="evenodd">
        <path d="M354.937908,86.624183 C355.843354,86.6334853 356.73205,86.8694222 357.522876,87.3104575 C358.353504,87.7538822 359.037087,88.4295165 359.490196,89.254902 C360.425368,90.8840509 360.425368,92.8871909 359.490196,94.5163399 C359.041138,95.3369536 358.366365,96.0117264 357.545752,96.4607843 C355.92123,97.3826344 353.931711,97.3826344 352.30719,96.4607843 C351.493576,96.0230763 350.819698,95.3650548 350.362745,94.5620915 C349.42288,92.9341969 349.42288,90.9285481 350.362745,89.3006536 C350.816914,88.476069 351.500225,87.8007032 352.330065,87.3562092 C353.123409,86.8954851 354.020693,86.6436159 354.937908,86.624183 L354.937908,86.624183 Z M354.937908,87.4934641 C354.177228,87.5004621 353.430297,87.6970229 352.764706,88.0653595 C352.070219,88.4361466 351.498111,89.0003087 351.117647,89.6895425 C350.33715,91.0414027 350.33715,92.7069633 351.117647,94.0588235 C351.495034,94.7425572 352.058096,95.3056198 352.74183,95.6830065 C354.094943,96.4588154 355.757998,96.4588154 357.111111,95.6830065 C357.795605,95.3066315 358.358919,94.7433175 358.735294,94.0588235 C359.511103,92.7057109 359.511103,91.0426551 358.735294,89.6895425 C358.355893,88.9995048 357.783512,88.4350734 357.088235,88.0653595 C356.429443,87.7006788 355.690825,87.5042378 354.937908,87.4934641 Z M352.650327,94.7908497 L352.650327,89.1405229 L354.594771,89.1405229 C355.080511,89.1203165 355.566491,89.1743143 356.035948,89.3006536 C356.326303,89.4006437 356.575565,89.5936212 356.745098,89.8496732 C356.917751,90.0901195 357.013462,90.3772539 357.019608,90.6732026 C357.023633,91.0751607 356.867199,91.462129 356.584967,91.748366 C356.275801,92.0638199 355.859402,92.2516076 355.418301,92.2745098 C355.595242,92.343483 355.758058,92.4442737 355.898693,92.5718954 C356.220785,92.9136137 356.504602,93.2894794 356.745098,93.6928105 L357.431373,94.7908497 L356.310458,94.7908497 L355.80719,93.8986928 C355.569358,93.4022269 355.24388,92.9527579 354.846405,92.5718954 C354.631495,92.4250232 354.374342,92.3526987 354.114379,92.3660131 L353.565359,92.3660131 L353.565359,94.7908497 L352.650327,94.7908497 Z M353.565359,91.6111111 L354.686275,91.6111111 C355.067362,91.6548687 355.452405,91.5746514 355.784314,91.3823529 C355.973719,91.233614 356.083539,91.0055257 356.081699,90.7647059 C356.086674,90.6013643 356.03851,90.4408189 355.944444,90.3071895 C355.846939,90.1719176 355.711649,90.0684606 355.555556,90.0098039 C355.25249,89.9610806 354.943588,89.9610806 354.640523,90.0098039 L353.588235,90.0098039 L353.565359,91.6111111 Z" id="Shape" fill="#FFFFFF" fill-rule="nonzero"></path>
        <path d="M126.065359,112.199346 L126.385621,110.735294 L132.081699,110.735294 L130.960784,116.019608 C130.195783,116.489903 129.373016,116.858995 128.513072,117.117647 C127.640135,117.396896 126.730197,117.543411 125.813725,117.552288 C124.221037,117.660922 122.667488,117.027682 121.604575,115.836601 C120.783471,114.780225 120.362146,113.467636 120.415033,112.130719 C120.395584,110.648495 120.7496,109.185228 121.444444,107.875817 C122.032261,106.70564 122.935544,105.723121 124.052288,105.039216 C125.116118,104.426661 126.32478,104.110671 127.552288,104.124183 C128.410076,104.109434 129.260836,104.281147 130.045752,104.627451 C130.719899,104.908025 131.30505,105.366657 131.738562,105.954248 C132.184545,106.645726 132.473466,107.426594 132.584967,108.24183 L130.754902,108.287582 C130.626596,107.488506 130.221788,106.75985 129.611111,106.228758 C128.960453,105.721557 128.146989,105.469383 127.323529,105.519608 C126.390231,105.521569 125.477131,105.79153 124.69281,106.297386 C123.829531,106.853522 123.146137,107.648167 122.72549,108.584967 C122.220387,109.689506 121.970203,110.893515 121.993464,112.107843 C121.932556,113.233036 122.338027,114.333599 123.114379,115.150327 C123.825701,115.846654 124.796959,116.211913 125.79085,116.156863 C127.080169,116.106199 128.333925,115.719821 129.428105,115.035948 L130.022876,112.245098 L126.065359,112.199346 Z" id="Path" fill="#FFFFFF" fill-rule="nonzero"></path>
        <polygon id="Path" fill="#FFFFFF" fill-rule="nonzero" points="134.140523 117.437908 136.862745 104.444444 138.464052 104.444444 135.74183 117.437908"></polygon>
        <path d="M139.493464,113.754902 C139.430391,112.078341 140.011559,110.441247 141.117647,109.179739 C142.018584,108.193608 143.305478,107.650439 144.640523,107.69281 C145.661951,107.647334 146.656318,108.028508 147.385621,108.745098 C148.108442,109.516859 148.488037,110.548369 148.437908,111.604575 C148.444591,112.647974 148.21793,113.67967 147.77451,114.624183 C147.377834,115.51209 146.724541,116.260987 145.898693,116.77451 C145.133194,117.263279 144.244822,117.525032 143.336601,117.529412 C142.636267,117.537403 141.944789,117.372391 141.323529,117.04902 C140.743451,116.754207 140.265282,116.291977 139.95098,115.722222 C139.634734,115.115627 139.477331,114.438795 139.493464,113.754902 L139.493464,113.754902 Z M141.094771,113.594771 C141.043497,114.322955 141.272658,115.043177 141.735294,115.607843 C142.151948,116.060746 142.744306,116.311039 143.359477,116.294118 C143.712841,116.294118 144.062707,116.224144 144.388889,116.088235 C144.739771,115.936965 145.058214,115.719492 145.326797,115.447712 C145.614789,115.163482 145.861228,114.840032 146.058824,114.486928 C146.269736,114.118111 146.43855,113.726768 146.562092,113.320261 C146.739894,112.773415 146.832481,112.202462 146.836601,111.627451 C146.884279,110.906696 146.655196,110.194903 146.196078,109.637255 C145.785455,109.17333 145.191279,108.913901 144.571895,108.928105 C144.089907,108.925379 143.61598,109.05176 143.199346,109.294118 C142.755841,109.562119 142.373882,109.920693 142.078431,110.346405 C141.735988,110.829445 141.487646,111.372694 141.346405,111.947712 C141.194115,112.484078 141.109579,113.037401 141.094771,113.594771 L141.094771,113.594771 Z" id="Shape" fill="#FFFFFF" fill-rule="nonzero"></path>
        <path d="M150.245098,117.437908 L152.96732,104.444444 L154.568627,104.444444 L153.607843,109.019608 C154.020926,108.623479 154.49135,108.291868 155.003268,108.035948 C155.410472,107.841335 155.855872,107.739752 156.30719,107.738562 C157.180569,107.696343 158.024611,108.05928 158.594771,108.722222 C159.236615,109.531688 159.554599,110.550865 159.486928,111.581699 C159.492827,112.359263 159.369129,113.132376 159.120915,113.869281 C158.921955,114.489922 158.628771,115.07629 158.251634,115.607843 C157.947938,116.030347 157.585959,116.407729 157.176471,116.728758 C156.800054,117.034375 156.374667,117.274139 155.918301,117.437908 C155.559098,117.569812 155.180016,117.639439 154.797386,117.643791 C154.211743,117.659031 153.635948,117.49109 153.150327,117.163399 C152.63302,116.784646 152.242293,116.25836 152.029412,115.653595 L151.663399,117.437908 L150.245098,117.437908 Z M152.53268,113.571895 L152.53268,113.869281 C152.486308,114.529525 152.690515,115.182987 153.104575,115.699346 C153.471756,116.105758 153.998225,116.331388 154.545752,116.316993 C155.120582,116.321226 155.675936,116.108885 156.101307,115.722222 C156.643483,115.224671 157.045744,114.593673 157.267974,113.892157 C157.549916,113.161329 157.704657,112.387625 157.72549,111.604575 C157.770954,110.937412 157.567161,110.277121 157.153595,109.751634 C156.806142,109.326542 156.284287,109.082448 155.735294,109.088235 C155.13517,109.090762 154.560073,109.329017 154.133987,109.751634 C153.569717,110.330083 153.153748,111.036445 152.921569,111.810458 C152.737783,112.340774 152.637459,112.896413 152.624183,113.457516 L152.53268,113.571895 Z" id="Shape" fill="#FFFFFF" fill-rule="nonzero"></path>
        <path d="M167.607843,116.156863 C167.130283,116.586486 166.590387,116.941275 166.006536,117.20915 C165.486784,117.435041 164.926194,117.551831 164.359477,117.552288 C163.585336,117.591486 162.82763,117.3197 162.254902,116.797386 C161.720957,116.284928 161.429892,115.569739 161.454248,114.830065 C161.446234,114.340191 161.572837,113.857515 161.820261,113.434641 C162.054245,113.032342 162.384363,112.694364 162.781046,112.45098 C163.231902,112.185663 163.728493,112.007201 164.245098,111.924837 C164.927261,111.827657 165.614937,111.774171 166.303922,111.764706 C167.040283,111.76752 167.772879,111.659558 168.477124,111.444444 C168.587003,111.088273 168.648555,110.71896 168.660131,110.346405 C168.671087,110.007198 168.517771,109.683529 168.248366,109.477124 C167.770531,109.155304 167.198885,109.002328 166.624183,109.042484 C166.041179,109.021997 165.466037,109.181759 164.977124,109.5 C164.534437,109.814613 164.205417,110.264006 164.039216,110.781046 L162.369281,110.575163 C162.649869,109.706978 163.203526,108.952721 163.947712,108.424837 C164.752771,107.892348 165.705614,107.628114 166.669935,107.669935 C167.660385,107.613363 168.639471,107.904661 169.437908,108.493464 C169.937652,108.872693 170.22657,109.467523 170.215686,110.094771 C170.202408,110.68085 170.125709,111.263768 169.986928,111.833333 L169.460784,114.120915 C169.313908,114.712848 169.229568,115.318563 169.20915,115.928105 C169.231926,116.361237 169.300945,116.790693 169.415033,117.20915 L167.79085,117.20915 C167.698045,116.864667 167.636791,116.512451 167.607843,116.156863 Z M168.202614,112.565359 C167.966158,112.658454 167.720905,112.727431 167.470588,112.771242 L166.189542,112.931373 C165.516944,112.969851 164.850061,113.077166 164.199346,113.251634 C163.849872,113.356981 163.544537,113.573929 163.330065,113.869281 C163.13673,114.135201 163.032619,114.45554 163.03268,114.784314 C163.019973,115.199129 163.186705,115.599287 163.490196,115.882353 C163.860061,116.192557 164.335277,116.348231 164.816993,116.316993 C165.938485,116.304684 166.967908,115.69401 167.51634,114.715686 C167.862213,114.041701 168.094107,113.3151 168.202614,112.565359 L168.202614,112.565359 Z" id="Shape" fill="#FFFFFF" fill-rule="nonzero"></path>
        <polygon id="Path" fill="#FFFFFF" fill-rule="nonzero" points="172.160131 117.437908 174.882353 104.444444 176.506536 104.444444 173.761438 117.437908"></polygon>
        <polygon id="Path" fill="#FFFFFF" fill-rule="nonzero" points="183.369281 117.437908 186.091503 104.444444 187.830065 104.444444 185.428105 115.882353 192.29085 115.882353 191.970588 117.346405"></polygon>
        <path d="M201.143791,114.120915 L202.699346,114.281046 C202.421361,115.182024 201.879489,115.978894 201.143791,116.568627 C200.346194,117.26376 199.319292,117.638661 198.261438,117.620915 C197.590309,117.628284 196.928573,117.46285 196.339869,117.140523 C195.764013,116.823687 195.300489,116.336188 195.013072,115.745098 C194.695267,115.089975 194.538416,114.36846 194.555556,113.640523 C194.544491,112.576847 194.787619,111.525909 195.264706,110.575163 C195.665408,109.696836 196.308166,108.950919 197.117647,108.424837 C197.856492,107.957225 198.713861,107.711129 199.588235,107.715686 C200.596331,107.668995 201.577064,108.051314 202.287582,108.767974 C202.991547,109.548439 203.353992,110.578114 203.294118,111.627451 C203.295868,112.10259 203.257607,112.577033 203.179739,113.045752 L196.316993,113.045752 C196.306675,113.213349 196.306675,113.381422 196.316993,113.54902 C196.270469,114.272915 196.490132,114.988854 196.934641,115.562092 C197.301083,116.003829 197.847676,116.256103 198.421569,116.248366 C199.006118,116.234338 199.572577,116.042859 200.045752,115.699346 C200.551047,115.285199 200.931222,114.738698 201.143791,114.120915 L201.143791,114.120915 Z M196.568627,111.833333 L201.669935,111.833333 C201.669935,111.673203 201.669935,111.558824 201.669935,111.46732 C201.718192,110.796066 201.505081,110.132145 201.075163,109.614379 C200.673221,109.186617 200.106216,108.953144 199.519608,108.973856 C198.82923,108.976044 198.162954,109.227929 197.643791,109.683007 C197.055592,110.263086 196.650032,111.002637 196.477124,111.810458 L196.568627,111.833333 Z" id="Shape" fill="#FFFFFF" fill-rule="nonzero"></path>
        <path d="M211.598039,116.156863 C211.120479,116.586486 210.580583,116.941275 209.996732,117.20915 C209.476981,117.435041 208.91639,117.551831 208.349673,117.552288 C207.575532,117.591486 206.817827,117.3197 206.245098,116.797386 C205.711153,116.284928 205.420088,115.569739 205.444444,114.830065 C205.43643,114.340191 205.563033,113.857515 205.810458,113.434641 C206.044441,113.032342 206.374559,112.694364 206.771242,112.45098 C207.222098,112.185663 207.718689,112.007201 208.235294,111.924837 C208.917457,111.827657 209.605133,111.774171 210.294118,111.764706 C211.030479,111.76752 211.763075,111.659558 212.46732,111.444444 C212.577199,111.088273 212.638751,110.71896 212.650327,110.346405 C212.661283,110.007198 212.507967,109.683529 212.238562,109.477124 C211.760727,109.155304 211.189081,109.002328 210.614379,109.042484 C210.031376,109.021997 209.456233,109.181759 208.96732,109.5 C208.524633,109.814613 208.195614,110.264006 208.029412,110.781046 L206.245098,110.575163 C206.525686,109.706978 207.079343,108.952721 207.823529,108.424837 C208.628588,107.892348 209.581431,107.628114 210.545752,107.669935 C211.536202,107.613363 212.515288,107.904661 213.313725,108.493464 C213.813469,108.872693 214.102387,109.467523 214.091503,110.094771 C214.078225,110.68085 214.001526,111.263768 213.862745,111.833333 L213.336601,114.120915 C213.189725,114.712848 213.105385,115.318563 213.084967,115.928105 C213.107743,116.361237 213.176762,116.790693 213.29085,117.20915 L211.666667,117.20915 C211.612316,116.861152 211.589347,116.508973 211.598039,116.156863 Z M212.19281,112.565359 C211.956354,112.658454 211.711101,112.727431 211.460784,112.771242 L210.179739,112.931373 C209.50714,112.969851 208.840257,113.077166 208.189542,113.251634 C207.840068,113.356981 207.534733,113.573929 207.320261,113.869281 C207.126926,114.135201 207.022815,114.45554 207.022876,114.784314 C207.010169,115.199129 207.176901,115.599287 207.480392,115.882353 C207.850257,116.192557 208.325473,116.348231 208.80719,116.316993 C209.928681,116.304684 210.958104,115.69401 211.506536,114.715686 C211.852409,114.041701 212.084303,113.3151 212.19281,112.565359 L212.19281,112.565359 Z" id="Shape" fill="#FFFFFF" fill-rule="nonzero"></path>
        <path d="M216.264706,117.437908 L218.232026,108.035948 L219.650327,108.035948 L219.261438,109.957516 C219.643486,109.349801 220.122611,108.808853 220.679739,108.356209 C221.079159,108.025062 221.579286,107.839531 222.098039,107.830065 C222.515111,107.854711 222.921461,107.971927 223.287582,108.173203 L222.624183,109.660131 C222.359,109.465354 222.038175,109.361086 221.70915,109.362745 C221.024419,109.420013 220.394468,109.759855 219.970588,110.300654 C219.218925,111.288633 218.737952,112.455583 218.575163,113.686275 L217.683007,117.437908 L216.264706,117.437908 Z" id="Path" fill="#FFFFFF" fill-rule="nonzero"></path>
        <path d="M223.218954,117.437908 L225.186275,108.035948 L226.650327,108.035948 L226.30719,109.683007 C226.828399,109.124439 227.429741,108.646449 228.091503,108.264706 C228.610307,107.979935 229.192493,107.830455 229.784314,107.830065 C230.444469,107.790466 231.093677,108.012347 231.591503,108.447712 C232.025384,108.885014 232.264558,109.478823 232.254902,110.094771 C232.228797,110.649596 232.152228,111.200891 232.026144,111.74183 L230.79085,117.437908 L229.120915,117.437908 L230.379085,111.46732 C230.4803,111.047022 230.541575,110.618101 230.562092,110.186275 C230.570315,109.900018 230.453382,109.624391 230.24183,109.431373 C229.977752,109.217758 229.64284,109.111567 229.303922,109.133987 C228.452246,109.110492 227.627233,109.432247 227.01634,110.026144 C226.333231,110.833762 225.889516,111.816275 225.735294,112.862745 L224.820261,117.437908 L223.218954,117.437908 Z" id="Path" fill="#FFFFFF" fill-rule="nonzero"></path>
        <path d="M234.176471,117.437908 L236.143791,108.035948 L237.745098,108.035948 L235.777778,117.437908 L234.176471,117.437908 Z M236.464052,106.27451 L236.852941,104.46732 L238.454248,104.46732 L238.065359,106.27451 L236.464052,106.27451 Z" id="Shape" fill="#FFFFFF" fill-rule="nonzero"></path>
        <path d="M239.186275,117.437908 L241.153595,108.035948 L242.617647,108.035948 L242.27451,109.683007 C242.795719,109.124439 243.397061,108.646449 244.058824,108.264706 C244.577628,107.979935 245.159813,107.830455 245.751634,107.830065 C246.344874,107.780228 246.93657,107.942337 247.421569,108.287582 C247.85545,108.724883 248.094623,109.318693 248.084967,109.934641 C248.058862,110.489465 247.982293,111.040761 247.856209,111.581699 L246.75817,117.437908 L245.133987,117.437908 L246.392157,111.46732 C246.493372,111.047022 246.554647,110.618101 246.575163,110.186275 C246.583387,109.900018 246.466454,109.624391 246.254902,109.431373 C245.990824,109.217758 245.655912,109.111567 245.316993,109.133987 C244.465317,109.110492 243.640305,109.432247 243.029412,110.026144 C242.329773,110.82847 241.869989,111.811457 241.702614,112.862745 L240.787582,117.437908 L239.186275,117.437908 Z" id="Path" fill="#FFFFFF" fill-rule="nonzero"></path>
        <path d="M250.120915,118.169935 L251.745098,118.330065 C251.719362,118.611807 251.766632,118.895429 251.882353,119.153595 C251.99021,119.347456 252.159092,119.500254 252.362745,119.588235 C252.718244,119.733233 253.099838,119.803322 253.48366,119.794118 C254.262946,119.871231 255.035634,119.594071 255.588235,119.039216 C256.006813,118.340486 256.271942,117.560696 256.366013,116.751634 L256.526144,115.996732 C255.850962,116.761457 254.891948,117.216162 253.872549,117.254902 C252.995804,117.242179 252.165135,116.860071 251.584967,116.202614 C250.897015,115.370218 250.553294,114.306319 250.624183,113.228758 C250.614851,112.210677 250.875315,111.208285 251.379085,110.323529 C251.811083,109.517117 252.430961,108.826621 253.186275,108.310458 C253.820644,107.8766 254.568184,107.638023 255.336601,107.624183 C256.550466,107.607953 257.66452,108.294211 258.196078,109.385621 L258.51634,107.852941 L259.980392,107.852941 L258.081699,117.003268 C257.932592,117.805282 257.654476,118.577827 257.25817,119.29085 C256.925793,119.848784 256.441907,120.30094 255.862745,120.594771 C255.21454,120.909034 254.501288,121.065793 253.781046,121.052288 C253.11311,121.066101 252.447735,120.965521 251.813725,120.754902 C251.324315,120.607353 250.89272,120.31163 250.578431,119.908497 C250.307665,119.536528 250.163342,119.087521 250.166667,118.627451 C250.13896,118.476449 250.123659,118.323433 250.120915,118.169935 Z M252.133987,113.160131 C252.110195,113.655047 252.172108,114.150352 252.316993,114.624183 C252.465849,115.032001 252.727679,115.389041 253.071895,115.653595 C253.387885,115.892678 253.773693,116.021281 254.169935,116.019624 C254.740908,116.00818 255.293546,115.815958 255.748366,115.470588 C256.320855,115.028489 256.756959,114.433803 257.006536,113.754902 C257.321204,113.033181 257.484695,112.254652 257.486928,111.46732 C257.522552,110.789873 257.292791,110.125206 256.846405,109.614379 C256.436821,109.165061 255.852938,108.914825 255.245098,108.928105 C254.842286,108.932288 254.447722,109.042766 254.101307,109.248366 C253.695036,109.493485 253.344418,109.820729 253.071895,110.20915 C252.742452,110.671612 252.501973,111.191358 252.362745,111.74183 C252.226699,112.202993 252.14983,112.67958 252.133987,113.160131 Z" id="Shape" fill="#FFFFFF" fill-rule="nonzero"></path>
        <path d="M267.872549,113.137255 L269.565359,112.977124 L269.565359,113.434641 C269.559948,113.914035 269.678125,114.386741 269.908497,114.80719 C270.171509,115.246417 270.574255,115.584723 271.052288,115.767974 C271.655641,116.008973 272.301439,116.125683 272.95098,116.111111 C273.769016,116.146356 274.575016,115.904557 275.238562,115.424837 C275.739899,115.062477 276.044243,114.487605 276.062092,113.869281 C276.061396,113.45464 275.906467,113.055087 275.627451,112.748366 C274.901093,112.164913 274.08124,111.70858 273.202614,111.398693 C272.478684,111.103395 271.775554,110.759473 271.098039,110.369281 C270.575838,110.051304 270.130536,109.621627 269.794118,109.111111 C269.511974,108.642196 269.369153,108.10265 269.382353,107.555556 C269.375164,106.911034 269.56688,106.279972 269.931373,105.748366 C270.328921,105.185081 270.886932,104.754616 271.53268,104.513072 C272.262103,104.229142 273.037533,104.081811 273.820261,104.078431 C274.740738,104.049014 275.655886,104.228915 276.496732,104.604575 C277.729773,105.156665 278.538479,106.36528 278.578431,107.715686 C278.578431,107.715686 278.578431,107.852941 278.578431,107.990196 L276.908497,108.127451 C276.950746,107.839231 276.950746,107.54639 276.908497,107.25817 C276.800184,106.914143 276.61206,106.600602 276.359477,106.343137 C276.06574,106.069575 275.71377,105.866215 275.330065,105.748366 C274.858317,105.590602 274.363402,105.513271 273.866013,105.519608 C273.051544,105.453935 272.240372,105.681063 271.578431,106.160131 C271.182908,106.474527 270.961798,106.95927 270.98366,107.464052 C270.981316,107.76496 271.068943,108.059703 271.235294,108.310458 C271.472554,108.619707 271.777823,108.870184 272.127451,109.042484 C272.432462,109.21024 273.194989,109.553377 274.415033,110.071895 C275.08654,110.351407 275.73646,110.68019 276.359477,111.055556 C276.811426,111.343848 277.187904,111.736011 277.457516,112.199346 C277.717075,112.659895 277.851174,113.180517 277.846405,113.70915 C277.848059,114.409395 277.62339,115.091427 277.205882,115.653595 C276.749285,116.267119 276.131685,116.742195 275.421569,117.026144 C274.594192,117.362606 273.706685,117.526094 272.813725,117.506536 C271.539073,117.563011 270.277706,117.227711 269.199346,116.545752 C268.22043,115.69905 267.723694,114.422955 267.872549,113.137255 L267.872549,113.137255 Z" id="Path" fill="#FFFFFF" fill-rule="nonzero"></path>
        <path d="M287.156863,114.120915 L288.712418,114.281046 C288.434433,115.182024 287.892561,115.978894 287.156863,116.568627 C286.359266,117.26376 285.332364,117.638661 284.27451,117.620915 C283.603381,117.628284 282.941645,117.46285 282.352941,117.140523 C281.777085,116.823687 281.313561,116.336188 281.026144,115.745098 C280.708339,115.089975 280.551488,114.36846 280.568627,113.640523 C280.557563,112.576847 280.80069,111.525909 281.277778,110.575163 C281.67848,109.696836 282.321238,108.950919 283.130719,108.424837 C283.869564,107.957225 284.726933,107.711129 285.601307,107.715686 C286.609403,107.668995 287.590136,108.051314 288.300654,108.767974 C289.004619,109.548439 289.367064,110.578114 289.30719,111.627451 C289.30894,112.10259 289.270678,112.577033 289.19281,113.045752 L282.330065,113.045752 C282.319747,113.213349 282.319747,113.381422 282.330065,113.54902 C282.283541,114.272915 282.503204,114.988854 282.947712,115.562092 C283.314155,116.003829 283.860748,116.256103 284.434641,116.248366 C285.01919,116.234338 285.585649,116.042859 286.058824,115.699346 C286.564119,115.285199 286.944294,114.738698 287.156863,114.120915 L287.156863,114.120915 Z M282.581699,111.833333 L287.866013,111.833333 C287.866013,111.673203 287.866013,111.558824 287.866013,111.46732 C287.91427,110.796066 287.701159,110.132145 287.271242,109.614379 C286.8693,109.186617 286.302294,108.953144 285.715686,108.973856 C285.025309,108.976044 284.359032,109.227929 283.839869,109.683007 C283.184426,110.238689 282.713669,110.98073 282.490196,111.810458 L282.581699,111.833333 Z" id="Shape" fill="#FFFFFF" fill-rule="nonzero"></path>
        <path d="M291.251634,117.437908 L293.218954,108.035948 L294.637255,108.035948 L294.248366,109.957516 C294.630414,109.349801 295.109539,108.808853 295.666667,108.356209 C296.066087,108.025062 296.566214,107.839531 297.084967,107.830065 C297.502039,107.854711 297.908389,107.971927 298.27451,108.173203 L297.611111,109.660131 C297.345928,109.465354 297.025103,109.361086 296.696078,109.362745 C296.011347,109.420013 295.381396,109.759855 294.957516,110.300654 C294.205853,111.288633 293.72488,112.455583 293.562092,113.686275 L292.784314,117.437908 L291.251634,117.437908 Z" id="Path" fill="#FFFFFF" fill-rule="nonzero"></path>
        <path d="M300.584967,117.437908 L299.052288,108.035948 L300.607843,108.035948 L301.408497,113.228758 C301.5,113.793028 301.606754,114.715686 301.728758,115.996732 C302.033769,115.325708 302.430283,114.563181 302.918301,113.70915 L306.075163,108.058824 L307.767974,108.058824 L302.323529,117.437908 L300.584967,117.437908 Z" id="Path" fill="#FFFFFF" fill-rule="nonzero"></path>
        <path d="M308.156863,117.437908 L310.124183,108.035948 L311.72549,108.035948 L309.75817,117.437908 L308.156863,117.437908 Z M310.444444,106.27451 L310.833333,104.46732 L312.434641,104.46732 L312.045752,106.27451 L310.444444,106.27451 Z" id="Shape" fill="#FFFFFF" fill-rule="nonzero"></path>
        <path d="M319.663399,113.892157 L321.264706,114.052288 C320.96334,115.072132 320.366267,115.979682 319.54902,116.660131 C318.823034,117.221951 317.927685,117.520401 317.009804,117.506536 C316.076791,117.546923 315.170484,117.189389 314.51634,116.522876 C313.84313,115.76329 313.497739,114.768233 313.555556,113.754902 C313.560985,112.717555 313.770869,111.691456 314.173203,110.735294 C314.517028,109.813029 315.130876,109.015824 315.934641,108.447712 C316.704909,107.929941 317.614435,107.658679 318.542484,107.669935 C319.423865,107.621222 320.28831,107.925836 320.944444,108.51634 C321.55491,109.116443 321.879596,109.948969 321.836601,110.803922 L320.25817,110.803922 C320.277798,110.286916 320.088113,109.783839 319.732026,109.408497 C319.369847,109.063294 318.882125,108.881432 318.382353,108.905229 C317.768665,108.898582 317.174083,109.118496 316.712418,109.522876 C316.176563,110.026558 315.7889,110.667388 315.591503,111.375817 C315.339765,112.11324 315.200942,112.884479 315.179739,113.663399 C315.128408,114.309848 315.315573,114.952718 315.705882,115.470588 C316.03102,115.852129 316.508539,116.069945 317.009804,116.065359 C317.56092,116.052738 318.088943,115.841529 318.496732,115.470588 C319.014185,115.052853 319.415868,114.5094 319.663399,113.892157 Z" id="Path" fill="#FFFFFF" fill-rule="nonzero"></path>
        <path d="M330.094771,114.120915 L331.650327,114.281046 C331.372341,115.182024 330.830469,115.978894 330.094771,116.568627 C329.297174,117.26376 328.270273,117.638661 327.212418,117.620915 C326.54129,117.628284 325.879554,117.46285 325.29085,117.140523 C324.714993,116.823687 324.251469,116.336188 323.964052,115.745098 C323.646248,115.089975 323.489397,114.36846 323.506536,113.640523 C323.506291,112.600014 323.749127,111.573835 324.215686,110.643791 C324.616389,109.765463 325.259147,109.019547 326.068627,108.493464 C326.807472,108.025853 327.664841,107.779756 328.539216,107.784314 C329.547311,107.737622 330.528044,108.119942 331.238562,108.836601 C331.942527,109.617067 332.304973,110.646741 332.245098,111.696078 C332.246848,112.171218 332.208587,112.645661 332.130719,113.114379 L325.267974,113.114379 C325.257655,113.281976 325.257655,113.45005 325.267974,113.617647 C325.22145,114.341542 325.441113,115.057481 325.885621,115.630719 C326.252063,116.072456 326.798657,116.32473 327.372549,116.316993 C327.957098,116.302965 328.523557,116.111486 328.996732,115.767974 C329.512641,115.335184 329.893699,114.763596 330.094771,114.120915 Z M325.519608,111.833333 L330.803922,111.833333 C330.803922,111.673203 330.803922,111.558824 330.803922,111.46732 C330.852178,110.796066 330.639068,110.132145 330.20915,109.614379 C329.807208,109.186617 329.240203,108.953144 328.653595,108.973856 C327.963217,108.976044 327.296941,109.227929 326.777778,109.683007 C326.122335,110.238689 325.651577,110.98073 325.428105,111.810458 L325.519608,111.833333 Z" id="Shape" fill="#FFFFFF" fill-rule="nonzero"></path>
        <path d="M334.349673,114.120915 L335.95098,114.120915 C335.939398,114.51977 336.009459,114.916783 336.156863,115.287582 C336.318143,115.634726 336.592315,115.916963 336.934641,116.088235 C337.34324,116.304067 337.799373,116.414168 338.261438,116.408497 C338.828996,116.448825 339.393467,116.295611 339.862745,115.973856 C340.188198,115.741093 340.383534,115.367407 340.388889,114.96732 C340.380418,114.67771 340.26654,114.401147 340.068627,114.189542 C339.595181,113.789353 339.052464,113.479229 338.46732,113.27451 C337.91102,113.0476 337.368673,112.787884 336.843137,112.496732 C336.483058,112.289044 336.177319,111.998985 335.95098,111.650327 C335.749963,111.311437 335.647009,110.92338 335.653595,110.529412 C335.647325,109.787413 335.97489,109.081888 336.545752,108.607843 C337.24651,108.036639 338.136914,107.75073 339.039216,107.80719 C340.00938,107.742798 340.969563,108.035735 341.738562,108.630719 C342.355318,109.174385 342.705847,109.958903 342.699346,110.781046 L341.120915,110.781046 C341.126576,110.266433 340.909764,109.774437 340.526144,109.431373 C340.075427,109.066774 339.503093,108.886898 338.924837,108.928105 C338.458005,108.900514 337.996367,109.038195 337.620915,109.316993 C337.34986,109.50652 337.181118,109.810254 337.163399,110.140523 C337.168572,110.445292 337.311576,110.7313 337.552288,110.918301 C337.980941,111.206798 338.441516,111.444762 338.924837,111.627451 C339.7428,111.937041 340.512934,112.360615 341.212418,112.885621 C341.71593,113.339211 341.992409,113.992706 341.96732,114.669935 C341.959209,115.160018 341.808145,115.637063 341.53268,116.042484 C341.211163,116.519431 340.75823,116.892902 340.228758,117.117647 C339.572434,117.402656 338.862464,117.54309 338.147059,117.529412 C337.155695,117.562905 336.179041,117.282718 335.356209,116.728758 C334.589714,116.093884 334.208474,115.106127 334.349673,114.120915 Z" id="Path" fill="#FFFFFF" fill-rule="nonzero"></path>
        <path d="M30.2156863,97.3071895 L30.2156863,48.0784314 L42.6601307,48.0784314 L42.6601307,56.1993464 C42.6601307,56.1993464 50.2777778,44.4183007 67.0686275,49.3366013 C72.3473771,51.1965919 75.9680442,56.0754408 76.2189542,61.6666667 L76.2189542,97.2385621 L62.8366013,97.2385621 L62.8366013,66.5620915 C62.9333496,64.1293721 61.9605566,61.7761698 60.1742742,60.1218787 C58.3879918,58.4675876 55.9671767,57.677941 53.5490196,57.9607843 C47.7402708,58.9136303 43.6032044,64.1196038 43.9869281,69.9934641 C43.9869281,80.6078431 43.9869281,97.4444444 43.9869281,97.4444444 L30.2156863,97.3071895 Z" id="Path" fill="#FFFFFF" fill-rule="nonzero"></path>
        <polygon id="Path" fill="#FFFFFF" fill-rule="nonzero" points="77.4313725 47.8954248 104.058824 112.816993 126.408497 58.2581699 171.656863 58.2581699 171.656863 47.7810458 117.53268 47.7810458 103.921569 81.5686275 90.4477124 47.9411765"></polygon>
        <polygon id="Path" fill="#E32E2D" fill-rule="nonzero" points="132.928105 68.0718954 129.245098 77.0849673 171.656863 77.0849673 171.656863 68.0490196"></polygon>
        <path d="M125.150327,86.8071895 L180.921569,86.8071895 L180.921569,47.7810458 L193.457516,47.7810458 L193.457516,55.6732026 C193.457516,55.6732026 204.895425,43.4346405 218.826797,49.6111111 C221.114379,50.6176471 227.039216,55.1013072 227.084967,61.2091503 C227.084967,64.0686275 227.084967,67.7745098 227.084967,67.7745098 L227.084967,97.124183 L213.931373,97.124183 C213.931373,97.124183 213.816993,68.6437908 213.816993,68.0261438 C213.816993,67.4084967 213.816993,54.3006536 201.418301,58.1666667 C197.28401,59.6327937 194.469885,63.4817896 194.326797,67.8660131 L194.326797,97.1699346 L120.872549,97.1699346 L125.150327,86.8071895 Z" id="Path" fill="#FFFFFF" fill-rule="nonzero"></path>
        <path d="M276.405229,59.630719 C276.405229,59.630719 275.490196,46.8660131 253.643791,46.8888582 C245.866013,46.8888582 232.735294,49.9771242 232.735294,61.6666667 C232.735294,65.9901961 234.153595,71.1601307 242.526144,74.2941176 C242.526144,74.2941176 253.392157,77.1993464 259.820261,78.6862745 C259.820261,78.6862745 264.875817,79.7614379 264.647059,83.375817 C264.647059,83.375817 264.349673,87.5620915 256.160131,87.9509804 C256.160131,87.9509804 245.5,89.3006536 243.921569,80.6535948 L233.261438,82.2091503 C233.261438,82.2091503 234.72549,97.7875817 256.137255,97.7419306 C262.359477,97.7419306 277.960784,95.2712418 278.029412,81.0653595 C278.295064,76.4034917 275.642915,72.0652683 271.372549,70.1764706 C268.101307,68.5294118 262.222222,67.8888889 254.375817,65.875817 C254.375817,65.875817 245.22549,64.1143791 245.22549,60.5915033 C245.22549,58.5555556 248.039216,56.5424837 254.055556,56.3594771 C258.264706,56.1993464 263.480392,57.9607843 263.98366,62.0326797 L276.405229,59.630719 Z" id="Path" fill="#FFFFFF" fill-rule="nonzero"></path>
        <path d="M348.075163,59.6535948 C348.075163,59.6535948 347.160131,46.8888889 325.313725,46.911734 C317.558824,46.911734 304.405229,50 304.405229,61.6895425 C304.405229,66.0130719 305.937908,70.8398693 314.287582,74.0882353 C314.287582,74.0882353 325.062092,77.2222222 331.490196,78.6633987 C331.490196,78.6633987 336.545752,79.7385621 336.339869,83.3529412 C336.339869,83.3529412 336.042484,87.5620915 327.852941,87.9281046 C327.852941,87.9281046 318.062092,88.5457516 316.666667,80.4705882 L304.954248,82.1862745 C304.954248,82.1862745 306.395425,97.7875817 327.830065,97.7419305 C334.029412,97.7419305 349.653595,95.2712418 349.722222,81.0653595 C349.974543,76.4068477 347.326661,72.0756044 343.065359,70.1764706 C339.794118,68.5065359 333.915033,67.8888889 326.068627,65.875817 C326.068627,65.875817 316.918301,64.1143791 316.918301,60.5915033 C316.918301,58.5326797 319.732026,56.5424837 325.748366,56.3366013 C329.957516,56.1993464 335.173203,57.9379085 335.676471,62.0326797 L348.075163,59.6535948 Z" id="Path" fill="#FFFFFF" fill-rule="nonzero"></path>
        <rect id="Rectangle" fill="#FFFFFF" fill-rule="nonzero" x="284.892157" y="47.5522876" width="13.6568627" height="49.6862745"></rect>
        <rect id="Rectangle" fill="#FFFFFF" fill-rule="nonzero" x="11" y="36" width="13.6568627" height="61.3071895"></rect>
    </g>
</svg>